ply
format ascii 1.0
comment PCL generated
element vertex 217
property float x
property float y
property float z
element camera 1
property float view_px
property float view_py
property float view_pz
property float x_axisx
property float x_axisy
property float x_axisz
property float y_axisx
property float y_axisy
property float y_axisz
property float z_axisx
property float z_axisy
property float z_axisz
property float focal
property float scalex
property float scaley
property float centerx
property float centery
property int viewportx
property int viewporty
property float k1
property float k2
end_header
0.056079 0.066335 0.024122
0.048168 0.06701 0.026298
0.056054998 0.057252999 0.024901999
0.051162999 0.056662001 0.029137
0.036913998 0.067032002 0.036122002
0.033 0.064719997 0.039903
0.038004 0.056506999 0.033119
0.030629 0.054915 0.038484
0.041875001 0.066382997 0.028356999
0.041434001 0.060880002 0.029632
0.044921 0.049904 0.031243
0.054634999 0.050167002 0.022043999
0.048280001 0.047370002 0.025845001
0.037973002 0.048347 0.031456001
0.028053001 0.047061 0.035990998
0.025595 0.040346 0.034150001
0.038454998 0.043508999 0.028278001
0.032031 0.043278001 0.029253
0.036580998 0.040335 0.025144
0.03019 0.039321002 0.026846999
0.059333 0.067891002 0.017361
0.046500001 0.071451999 0.019710001
0.059562001 0.057746999 0.018340001
0.055636 0.049199 0.019173
0.050500002 0.045063999 0.019181
0.023 0.047803 0.039776001
0.022389 0.038860001 0.038795002
-0.019545 0.093900003 0.052205
-0.021462001 0.10618 0.042059001
-0.031027 0.10395 0.041228
-0.022521 0.097723 0.045194
-0.031858001 0.097025998 0.043878
-0.043262001 0.10412 0.040890999
-0.052154001 0.10404 0.040972002
-0.041875001 0.096943997 0.042424001
-0.051918998 0.096966997 0.043563001
-0.021489 0.086672001 0.054767001
-0.027000001 0.083086997 0.050283998
-0.02107 0.077248998 0.054365002
-0.026010999 0.089634001 0.048981
-0.031893 0.087035 0.044169001
-0.025625 0.074891999 0.047102001
-0.031970002 0.076899998 0.042176999
-0.041824002 0.086953998 0.043295
-0.051825002 0.086843997 0.044932999
-0.041917998 0.076728001 0.042564001
-0.051849 0.076876998 0.042992
-0.061338998 0.10393 0.041164
-0.072672002 0.10976 0.044294
-0.061783999 0.096825004 0.043327
-0.070058003 0.096202999 0.041397002
-0.080439001 0.11091 0.044342998
-0.061926998 0.086723998 0.044520002
-0.070344001 0.087352 0.041908
-0.061409999 0.077489004 0.042178001
-0.068579003 0.080144003 0.041023999
-0.019045001 0.067731999 0.052388001
-0.017742001 0.058908999 0.050809
-0.023548 0.066381998 0.045226
-0.033989999 0.067795001 0.040929001
-0.02169 0.056549001 0.045164
-0.036111001 0.060706001 0.040406998
-0.041230999 0.066950999 0.041391999
-0.048588 0.070955999 0.040357001
-0.0403 0.059464999 0.040445998
-0.021919999 0.044964999 0.052258
-0.029186999 0.043584999 0.051088002
-0.021919001 0.039825998 0.053521
-0.030331001 0.039749 0.052133001
-0.021997999 0.049846999 0.046725001
-0.031911001 0.046847999 0.045187
-0.035275999 0.039753001 0.047529001
-0.042016 0.044822998 0.041593999
-0.051940002 0.044707 0.043497998
-0.041928001 0.039326999 0.043582
-0.051856998 0.039252002 0.046211999
-0.059452999 0.044240002 0.042862002
-0.060764998 0.039087001 0.044362999
-0.024273001 0.11038 0.039129
-0.032379001 0.10878 0.037951998
-0.041152 0.10853 0.037969001
-0.051697999 0.10906 0.038258001
-0.062091 0.10877 0.038274001
-0.071654998 0.10596 0.037516002
-0.074634001 0.097746 0.038346998
-0.079120003 0.10508 0.032308001
-0.080202997 0.096758001 0.033592001
-0.083779998 0.10568 0.025985001
-0.087292001 0.10314 0.020825
-0.085210003 0.097079001 0.02781
-0.088082001 0.096455999 0.022985
-0.075159997 0.086039998 0.038816001
-0.064576998 0.073454998 0.038970001
-0.072278999 0.076416001 0.036412999
-0.076375 0.072563 0.028729999
-0.080031 0.087076001 0.034290001
-0.078919001 0.079370998 0.032476999
-0.084834002 0.086686 0.026974
-0.087890998 0.089233004 0.022611
-0.081047997 0.077169001 0.025829
-0.086392999 0.10784 0.018634999
-0.087672003 0.10492 0.017263999
-0.089332998 0.098483004 0.01761
-0.086374998 0.083067 0.018607
-0.089179002 0.089185998 0.018947
-0.082878999 0.076109 0.017794
-0.082500003 0.074674003 0.0071175001
-0.026436999 0.064140998 0.039321002
-0.030035 0.066129997 0.038942002
-0.026131 0.056531001 0.038881999
-0.031663999 0.056657001 0.037742
-0.045715999 0.064540997 0.039166
-0.051959001 0.066868998 0.036733001
-0.042557001 0.055544998 0.039026
-0.049405999 0.056892 0.034343999
-0.055500001 0.062391002 0.029498
-0.053750001 0.058573999 0.026312999
-0.034060001 0.050136998 0.038577002
-0.041740999 0.049589999 0.03929
-0.050974999 0.049435001 0.036965001
-0.052999999 0.051065002 0.029208999
-0.054145001 0.054568 0.012257
-0.055847999 0.054170001 0.0083272001
-0.054843999 0.049295001 0.011462
-0.056150001 0.050618999 0.0092928996
-0.061450999 0.068256997 0.035376001
-0.069724999 0.069958001 0.032788001
-0.062822998 0.063322 0.026885999
-0.071037002 0.066786997 0.025227999
-0.060857002 0.060568001 0.022643
-0.067000002 0.061558001 0.020109
-0.078199998 0.071278997 0.021032
-0.062116001 0.045145001 0.037802
-0.065472998 0.039512999 0.037964001
-0.067249998 0.037420001 0.033413
-0.072701998 0.065008 0.018701
-0.061450001 0.059165001 0.018731
-0.067500003 0.061478999 0.019221
-0.057411 0.054113999 0.0038256999
-0.079222001 0.070653997 0.017735001
-0.062472999 0.044679999 0.01111
-0.067249998 0.042257998 0.010414
-0.066389002 0.040514998 0.01316
-0.068359002 0.038502 0.011958
-0.061381001 0.047479998 0.0076069999
-0.068558998 0.043549001 0.0081575997
-0.070928998 0.039829999 0.0085888002
-0.016625 0.18375 -0.019734999
-0.015198 0.17471001 -0.018867999
-0.015944 0.16264001 -0.0091036996
-0.015977001 0.16069999 -0.0088072
-0.013251 0.16708 -0.015264
-0.014292 0.16098 -0.011252
-0.013986 0.184 -0.023739001
-0.011633 0.17699 -0.023349
-0.0091028996 0.16988 -0.021457
-0.025562 0.18273 -0.0096247001
-0.027249999 0.18254 -0.0094384002
-0.025736 0.17948 -0.0089653004
-0.031215999 0.17589 -0.0051154001
-0.020399 0.18449999 -0.014943
-0.021338999 0.17645 -0.014566
-0.027124999 0.17234001 -0.010156
-0.039390001 0.1733 -0.0023574999
-0.022876 0.16406 -0.0078103002
-0.031597 0.16651 -0.0049291998
-0.022600001 0.15911999 -0.0037990001
-0.030371999 0.15767001 -0.0012672
-0.021158 0.16848999 -0.012383
-0.027000001 0.17120001 -0.01022
-0.041719001 0.16813 -0.00074957998
-0.048250001 0.16748001 -0.00015191
-0.037250001 0.16147 -7.2627998e-05
-0.066428997 0.15783 -0.0085672997
-0.071284004 0.15839 -0.005998
-0.065978996 0.16288 -0.017792
-0.071622998 0.16384 -0.015760001
-0.066068001 0.16051 -0.013567
-0.073307 0.16049001 -0.011832
-0.077 0.16204 -0.019241
-0.077179 0.15851 -0.01495
-0.073691003 0.17286 -0.037944
-0.077550001 0.17220999 -0.039175
-0.065921001 0.16586 -0.025022
-0.072094999 0.16784 -0.024724999
-0.066 0.16808 -0.030916
-0.073448002 0.17050999 -0.032044999
-0.077770002 0.16434 -0.025938001
-0.077892996 0.16039 -0.021299001
-0.078211002 0.169 -0.034566
-0.034667 0.15131 -0.00071028998
-0.066117004 0.17353 -0.047453001
-0.071985997 0.17612 -0.045384001
-0.069250003 0.182 -0.055025999
-0.064992003 0.17802 -0.054644998
-0.069935001 0.17983 -0.051987998
-0.077930003 0.17516001 -0.044399999
0.032864999 0.11118 0.02949
0.040918 0.097121999 0.026652999
0.044123001 0.086456001 0.024231
0.053649999 0.072210997 0.020419
0.045060001 0.076563999 0.023584001
0.038026001 0.086653002 0.035448998
0.037850998 0.076614998 0.035647999
0.042226002 0.087227002 0.028244
0.042344999 0.076737002 0.028480001
0.043864999 0.096217997 0.015219
0.044365 0.096786998 0.0086345002
0.039554998 0.1062 0.017665001
0.042323001 0.10019 0.017247001
0.045416001 0.087426998 0.015614
0.055128001 0.072649002 0.017953999
0.048732001 0.073559999 0.017444
0.045926999 0.086237997 0.0094221001
0.019443 0.1095 0.039064001
0.01096 0.11068 0.039657999
0.046666998 0.057163 0.031346999
0 0 0 1 0 0 0 1 0 0 0 1 0 0 0 0 0 217 1 0 0
