ply
format ascii 1.0
comment PCL generated
element vertex 200
property float x
property float y
property float z
element camera 1
property float view_px
property float view_py
property float view_pz
property float x_axisx
property float x_axisy
property float x_axisz
property float y_axisx
property float y_axisy
property float y_axisz
property float z_axisx
property float z_axisy
property float z_axisz
property float focal
property float scalex
property float scaley
property float centerx
property float centery
property int viewportx
property int viewporty
property float k1
property float k2
end_header
0.0054215998 0.11349 0.040748999
-0.0017447 0.11425 0.041273002
-0.010661 0.11338 0.040916
0.026422 0.11499 0.032623
0.024545001 0.12284 0.024255
0.034136999 0.11316 0.02507
0.028860001 0.11773 0.027037
0.02675 0.12234 0.017604999
0.035750002 0.1123 0.019109
0.015982 0.12307 0.031279001
0.0079813004 0.12438 0.032798
0.018100999 0.11674 0.035493001
0.0086687002 0.11758 0.037537999
0.01808 0.12536 0.026132001
0.0080861002 0.12865999 0.02619
0.02275 0.12146 0.029671
-0.0018689 0.12456 0.033183999
-0.011168 0.12376 0.032519002
-0.0020063 0.11937 0.038104001
-0.01232 0.11816 0.037427001
-0.0016659 0.12879001 0.026782
-0.011971 0.12723 0.026218999
0.016484 0.12828 0.01928
0.0070921001 0.13102999 0.018415
0.0014615 0.13134 0.017095
-0.013821 0.12886 0.019265
-0.01725 0.11202 0.040077001
-0.074556001 0.13415 0.051045999
-0.065971002 0.14396 0.04109
-0.071924999 0.14545 0.043265998
-0.065509997 0.13624001 0.042195
-0.071111999 0.13767 0.047518
-0.079527996 0.13416 0.051194001
-0.080421001 0.14428 0.042792998
-0.082672 0.13779999 0.046806
-0.088129997 0.13514 0.042222001
-0.066325001 0.12347 0.050728999
-0.072398998 0.12661999 0.052363999
-0.066091001 0.11973 0.050880998
-0.072012 0.11811 0.052294999
-0.062433001 0.12627 0.043830998
-0.068325996 0.12998 0.048875
-0.063093998 0.11811 0.044399001
-0.071300998 0.11322 0.048409998
-0.080514997 0.12740999 0.052034002
-0.078179002 0.1191 0.051116001
-0.085216001 0.12609001 0.049001001
-0.089538001 0.12621 0.044589002
-0.082658999 0.11661 0.047970001
-0.089535996 0.11784 0.044569999
-0.056499999 0.15248001 0.030131999
-0.055516999 0.15312999 0.026915001
-0.036249999 0.17197999 0.00017688
-0.037749998 0.17197999 0.00022189
-0.036249999 0.16935 0.00051957997
-0.033176001 0.15711001 0.0018682
-0.051913001 0.15449999 0.011273
-0.041707002 0.16642 0.0030522
-0.049467999 0.16414 0.0041987998
-0.041892 0.15669 0.0054879002
-0.051224001 0.15877999 0.0080282995
-0.062417001 0.15317 0.033160999
-0.071670003 0.15319 0.033700999
-0.062542997 0.15524 0.027404999
-0.072109997 0.15549999 0.027644999
-0.078662999 0.15268999 0.032267999
-0.081569001 0.15374 0.026085
-0.087250002 0.1523 0.022135001
-0.057250001 0.15568 0.010325
-0.057888001 0.1575 0.0073225
-0.088500001 0.15222999 0.019215001
-0.056129001 0.14616001 0.030850001
-0.054705001 0.13555001 0.032127
-0.054143999 0.14714 0.026275
-0.046624999 0.13234 0.021909
-0.05139 0.13694 0.025787
-0.018278001 0.12238 0.030773001
-0.021655999 0.11643 0.035209
-0.031920999 0.11566 0.032850999
-0.021348 0.12421 0.024561999
-0.03241 0.12349 0.023293
-0.024869001 0.12094 0.028744999
-0.031746998 0.12039 0.028229
-0.052912001 0.12685999 0.034968
-0.041671999 0.11564 0.032997999
-0.052037001 0.1168 0.034582
-0.042495001 0.12488 0.024081999
-0.047945999 0.12736 0.028108001
-0.042420998 0.12035 0.028633
-0.047660999 0.12024 0.028871
-0.035964001 0.1513 0.00053949998
-0.050597999 0.14740001 0.013881
-0.046374999 0.13293 0.018289
-0.049125001 0.13856 0.016269
-0.042975999 0.14915 0.0054003
-0.047965001 0.14658999 0.0086783003
-0.022926001 0.12630001 0.018076999
-0.031583 0.1259 0.017804001
-0.041733 0.12796 0.016650001
-0.061482001 0.14698 0.036168002
-0.071728997 0.15026 0.038327999
-0.060525998 0.13680001 0.035999
-0.082618997 0.14823 0.035955001
-0.087824002 0.14449 0.033778999
-0.089000002 0.13828 0.037774
-0.085662 0.15095 0.028208001
-0.089601003 0.14725 0.025869001
-0.090681002 0.13748001 0.02369
-0.058722001 0.12924001 0.038991999
-0.060075 0.11512 0.037684999
-0.091812 0.12767 0.038702998
-0.091727003 0.11657 0.039618999
-0.093163997 0.12721001 0.025211001
-0.093938001 0.12067 0.024398999
-0.091582999 0.14522 0.019859999
-0.090929002 0.13666999 0.019817
-0.093093999 0.11635 0.018959001
0.024948001 0.10286 0.041418001
0.033599999 0.092626996 0.040463001
0.027419999 0.096386001 0.043311998
0.033920001 0.086911 0.041034002
0.028155999 0.086837001 0.045084
0.033810001 0.078603998 0.040854
0.028124999 0.076874003 0.045058999
0.0145 0.093278997 0.05088
0.0074816998 0.094729997 0.052315
0.017407 0.10535 0.043138999
0.0079536 0.10633 0.042968001
0.018510999 0.097194001 0.047253001
0.0086436002 0.099322997 0.048078999
-0.0020196999 0.095697999 0.053906001
-0.011446 0.095169 0.053862002
-0.001875 0.10691 0.043455001
-0.011875 0.10688 0.043019
-0.0017622 0.10071 0.046647999
-0.012498 0.10008 0.045915999
0.016380999 0.085894004 0.051642001
0.0081166998 0.086910002 0.055227999
0.017643999 0.076954998 0.052372001
0.0081249997 0.076853 0.055535998
0.020575 0.088169001 0.049006
0.022445001 0.075721003 0.049563002
-0.0017931 0.086848997 0.056843001
-0.011943 0.086770996 0.057009
-0.0019567001 0.076862998 0.057803001
-0.011875 0.076963998 0.057022002
0.03325 0.067541003 0.040033001
0.028148999 0.066829003 0.042952999
0.026760999 0.057829 0.042587999
0.023571 0.047460001 0.040428001
0.015831999 0.067418002 0.051639002
0.0080431001 0.066901997 0.055006001
0.013984 0.058885999 0.050416
0.0080973003 0.056887999 0.052949999
0.020566 0.065958001 0.048300002
0.018594 0.056538999 0.047878999
0.012875 0.052652001 0.049688999
-0.0017852 0.066711999 0.056503002
-0.011785 0.066885002 0.055015001
-0.001875 0.056597002 0.054409999
-0.01184 0.057054002 0.052714001
-0.015688 0.052469 0.049614999
0.0066153998 0.049929999 0.051259
0.018088 0.046654999 0.043320999
0.0088409996 0.045437001 0.046622999
0.017688001 0.039719 0.043083999
0.0081249997 0.039515998 0.045373999
-0.0016111 0.049844 0.051720001
-0.01245 0.046773002 0.050903
-0.013851 0.039778002 0.051036
-0.0020294001 0.044874001 0.047587
-0.011653 0.046859998 0.048661001
-0.0018611 0.039606001 0.047339
-0.0091545004 0.039579999 0.049415
0.043660998 0.094028004 0.02252
0.034642 0.10473 0.031831
0.028343 0.1072 0.036339
0.036339 0.096551999 0.034843002
0.031732999 0.099372 0.038504999
0.036998 0.10668 0.026781
0.032875001 0.11108 0.029589999
0.040938001 0.097131997 0.026663
0.044153001 0.086465999 0.024241
0.053750001 0.072221003 0.020429
0.045159999 0.076573998 0.023593999
0.038036 0.086663 0.035459001
0.037861001 0.076624997 0.035657998
0.042215999 0.087237 0.028254
0.042355001 0.076747 0.028580001
0.043875001 0.096228004 0.015269
0.044374999 0.096796997 0.0086444998
0.039545 0.1061 0.017655
0.042312998 0.10009 0.017237
0.045405999 0.087416999 0.015604
0.055117998 0.072639003 0.017944001
0.048721999 0.073760003 0.017433999
0.045917001 0.086297996 0.0094210999
0.019432999 0.1096 0.039062999
0.01097 0.11058 0.039648
0.046657 0.057153001 0.031337
0 0 0 1 0 0 0 1 0 0 0 1 0 0 0 0 0 200 1 0 0
